<svg width="512" height="512" viewBox="0 0 512 512" fill="none" xmlns="http://www.w3.org/2000/svg">
<rect width="512" height="512" rx="96" fill="#F97316"/>
<g transform="translate(102.4, 102.4) scale(0.6)">
<svg
    xmlns="http://www.w3.org/2000/svg"
    width="512"
    height="512"
    viewBox="0 0 24 24"
    fill="none"
    stroke="white"
    stroke-width="1.5"
    stroke-linecap="round"
    stroke-linejoin="round">
    <path d="M12 2a5 5 0 0 0-5 5v1.5a1.5 1.5 0 0 0 3 0V7a2 2 0 0 1 2-2 2 2 0 0 1 2 2v1.5a1.5 1.5 0 0 0 3 0V7a5 5 0 0 0-5-5Z" />
    <path d="M5 10a1 1 0 0 0-1 1v2a1 1 0 0 0 1 1h14a1 1 0 0 0 1-1v-2a1 1 0 0 0-1-1Z" />
    <path d="M5 15a1 1 0 0 0-1 1v3a1 1 0 0 0 1 1h14a1 1 0 0 0 1-1v-3a1 1 0 0 0-1-1Z" />
</svg>
</g>
</svg>
